# File produced by Open Asset Import Library (http://www.assimp.sf.net)
# (assimp v5.2.805582261)

mtllib sky.mtl

# 8 vertex positions
v 0.6086483 0.314977229 0.467755735
v -0.629186988 -0.273029387 0.467755735
v -0.629186988 0.314977229 0.467755735
v 0.6086483 -0.273029387 0.467755735
v -0.629186988 0.314977229 0.468185663
v 0.6086483 -0.273029387 0.468185663
v 0.6086483 0.314977229 0.468185663
v -0.629186988 -0.273029387 0.468185663

# 0 UV coordinates

# 6 vertex normals
vn 0 0 -7.66721371e-07
vn 0 0 7.66721371e-07
vn 0.00100000005 0 0
vn -0.00100000005 0 0
vn 0 0.00104858913 0
vn 0 -0.00104858913 0

# Mesh 'mesh_id67' with 12 faces
g mesh_id67
usemtl 86
f  1//1 2//1 3//1
f  1//1 4//1 2//1
f  5//2 6//2 7//2
f  5//2 8//2 6//2
f  7//3 4//3 1//3
f  7//3 6//3 4//3
f  3//4 8//4 5//4
f  3//4 2//4 8//4
f  3//5 7//5 1//5
f  3//5 5//5 7//5
f  8//6 4//6 6//6
f  8//6 2//6 4//6

